<svg xmlns="http://www.w3.org/2000/svg" viewBox="0 0 100 100" width="100" height="100" aria-hidden="true"><defs><linearGradient id="mg_pink" x1="0" y1="0" x2="0" y2="1"><stop offset="0" stop-color="#FFF2F5"/><stop offset=".62" stop-color="#FFC7DA"/><stop offset="1" stop-color="#F09BB8"/></linearGradient></defs><ellipse cx="50" cy="90" rx="24" ry="4.4" fill="rgba(40,25,10,.10)"/><rect x="15" y="19" width="70" height="63" rx="29" fill="url(#mg_pink)" stroke="#F09BB8" stroke-width="1.5"/><ellipse cx="50" cy="70" rx="27" ry="11" fill="rgba(150,110,60,.09)"/><ellipse cx="36" cy="34" rx="14" ry="8" fill="rgba(255,255,255,.55)"/><rect x="21.5" y="54" width="12" height="8.5" rx="4" fill="#FFB0C4" opacity=".82"/><rect x="66.5" y="54" width="12" height="8.5" rx="4" fill="#FFB0C4" opacity=".82"/><rect x="31" y="38.5" width="11" height="15" rx="5.5" fill="#33405c"/><rect x="58" y="38.5" width="11" height="15" rx="5.5" fill="#33405c"/><rect x="33.4" y="41" width="3.7" height="5" rx="1.85" fill="#fff" opacity=".92"/><rect x="60.4" y="41" width="3.7" height="5" rx="1.85" fill="#fff" opacity=".92"/><path d="M24 17 L26 22 L31 24 L26 26 L24 31 L22 26 L17 24 L22 22 Z" fill="#FFC94D"/><path d="M77 19 L79 24 L84 26 L79 28 L77 33 L75 28 L70 26 L75 24 Z" fill="#FFC94D"/><path d="M40.5 58 Q50 72 59.5 58 Z" fill="#E8657F"/><path d="M44 62 Q50 66 56 62" fill="#F49BB1"/></svg>