<svg xmlns="http://www.w3.org/2000/svg" class="mallow" viewBox="0 0 100 100" width="40" height="40" aria-hidden="true"><ellipse cx="50" cy="89" rx="25" ry="4.8" fill="rgba(34,77,55,.13)"></ellipse><path d="M50 25 C44 17 35 17 31 21 C37 24 42 29 48 31" fill="#62C681" stroke="#38995D" stroke-width="1.6" stroke-linejoin="round"></path><path d="M52 25 C58 16 68 16 73 21 C66 24 61 29 53 31" fill="#89DB8B" stroke="#38995D" stroke-width="1.6" stroke-linejoin="round"></path><path d="M50 31 V22" fill="none" stroke="#419B5A" stroke-width="2.5" stroke-linecap="round"></path><path d="M50 23 C31 23 19 35 19 53 C19 72 31 83 50 83 C69 83 81 72 81 53 C81 35 69 23 50 23 Z" fill="url(#mg_mint)" stroke="#8AD4B6" stroke-width="1.7" stroke-linejoin="round"></path><ellipse cx="50" cy="71" rx="25" ry="10" fill="rgba(48,117,81,.10)"></ellipse><ellipse cx="37" cy="37" rx="13" ry="7" fill="rgba(255,255,255,.62)" transform="rotate(-19 37 37)"></ellipse><circle cx="30" cy="56" r="3.5" fill="#FF9DB8" opacity=".35"></circle><circle cx="70" cy="56" r="3.5" fill="#FF9DB8" opacity=".35"></circle><circle cx="38" cy="47" r="4.2" fill="#33405c"></circle><circle cx="62" cy="47" r="4.2" fill="#33405c"></circle><circle cx="36.8" cy="45.8" r="1.15" fill="#fff" opacity=".9"></circle><circle cx="60.8" cy="45.8" r="1.15" fill="#fff" opacity=".9"></circle><path d="M46 59 Q50 62.5 54 59" fill="none" stroke="#33405c" stroke-width="2.2" stroke-linecap="round"></path></svg>